<?xml version="1.0" encoding="UTF-8" standalone="no"?>
<!-- Created with Inkscape (http://www.inkscape.org/) -->

<svg
   xmlns:dc="http://purl.org/dc/elements/1.1/"
   xmlns:cc="http://creativecommons.org/ns#"
   xmlns:rdf="http://www.w3.org/1999/02/22-rdf-syntax-ns#"
   xmlns:svg="http://www.w3.org/2000/svg"
   xmlns="http://www.w3.org/2000/svg"
   xmlns:sodipodi="http://sodipodi.sourceforge.net/DTD/sodipodi-0.dtd"
   xmlns:inkscape="http://www.inkscape.org/namespaces/inkscape"
   width="24"
   height="24"
   id="svg2"
   version="1.1"
   inkscape:version="0.91 r"
   inkscape:export-filename="/home/tautvydas/Documents/Development/Java/Server/Library/src/main/res/drawable-xxxhdpi/ic_toolbar.png"
   inkscape:export-xdpi="177.23077"
   inkscape:export-ydpi="177.23077"
   sodipodi:docname="logo.svg"
   style="enable-background:new">
  <defs
     id="defs4" />
  <sodipodi:namedview
     id="base"
     pagecolor="#ffffff"
     bordercolor="#666666"
     borderopacity="1.0"
     inkscape:pageopacity="0.0"
     inkscape:pageshadow="2"
     inkscape:zoom="9.2438141"
     inkscape:cx="4.7658855"
     inkscape:cy="31.529603"
     inkscape:document-units="px"
     inkscape:current-layer="layer1"
     showgrid="false"
     inkscape:snap-global="true"
     inkscape:snap-grids="false"
     inkscape:snap-to-guides="true"
     showguides="true"
     inkscape:guide-bbox="true"
     inkscape:snap-page="true"
     inkscape:snap-center="false"
     inkscape:window-width="1920"
     inkscape:window-height="1028"
     inkscape:window-x="0"
     inkscape:window-y="0"
     inkscape:window-maximized="1" />
  <metadata
     id="metadata7">
    <rdf:RDF>
      <cc:Work
         rdf:about="">
        <dc:format>image/svg+xml</dc:format>
        <dc:type
           rdf:resource="http://purl.org/dc/dcmitype/StillImage" />
        <dc:title></dc:title>
      </cc:Work>
    </rdf:RDF>
  </metadata>
  <g
     inkscape:groupmode="layer"
     id="layer1"
     inkscape:label="Layer 1">
    <path
       inkscape:connector-curvature="0"
       style="color:#000000;display:inline;overflow:visible;visibility:visible;opacity:0.98999999;fill:#000000;fill-opacity:1;fill-rule:nonzero;stroke:none;marker:none;enable-background:accumulate"
       d="m 1,1.9999995 c -0.554,0 -1,0.445999 -1,0.999998 l 0,1.22222 2.222222,0 0,-2.222218 -1.222222,0 z m 3.444444,0 0,2.222217 2.222222,0 0,-2.222217 -2.222222,0 z m 4.4444441,0 0,2.222217 2.2222239,0 0,-2.222217 -2.2222239,0 z m 4.4444449,0 0,2.222217 2.222223,0 0,-2.222217 -2.222223,0 z m 4.444444,0 0,2.222217 2.222223,0 0,-1.22222 c 0,-0.553998 -0.446,-0.999997 -1,-0.999997 l -1.222223,0 z M 0,6.4444335 l 0,2.2222183 2.222222,0 0,-2.2222183 -2.222222,0 z m 17.777777,0 0,2.2222183 2.222223,0 0,-2.2222183 -2.222223,0 z M 0,10.888913 l 0,2.222218 2.222222,0 0,-2.222218 -2.222222,0 z m 4.444444,0 0,2.222218 2.222222,0 0,-2.222218 -2.222222,0 z m 4.4444441,0 0,2.222218 2.2222239,0 0,-2.222218 -2.2222239,0 z M 0,15.333348 l 0,2.222218 2.222222,0 0,-2.222218 -2.222222,0 z m 17.777777,0 0,2.222218 2.222223,0 0,-2.222218 -2.222223,0 z M 0,19.777782 0,21.000002 C 0,21.554001 0.446,22 1,22 l 1.222222,0 0,-2.222218 -2.222222,0 z m 4.444444,0 0,2.222218 2.222222,0 0,-2.222218 -2.222222,0 z m 4.4444441,0 0,2.222218 2.2222239,0 0,-2.222218 -2.2222239,0 z m 4.4444449,0 0,2.222218 2.222223,0 0,-2.222218 -2.222223,0 z m 4.444444,0 0,2.222218 L 19,22 c 0.554,0 1,-0.445999 1,-0.999998 l 0,-1.22222 -2.222223,0 z"
       id="rect4747" />
  </g>
</svg>
